<?xml version="1.0" encoding="utf-8"?>
<!-- Generator: Adobe Illustrator 27.8.1, SVG Export Plug-In . SVG Version: 6.00 Build 0)  -->
<svg version="1.1" id="레이어_1" xmlns="http://www.w3.org/2000/svg" xmlns:xlink="http://www.w3.org/1999/xlink" x="0px"
	 y="0px" viewBox="0 0 187 32" style="enable-background:new 0 0 187 32;" xml:space="preserve">
<style type="text/css">
	.st0{fill:#F4C21C;}
</style>
<g>
	<path class="st0" d="M19.02,18.74l1.81,0.16c0.4,0,0.7-0.04,0.9-0.12s0.36-0.1,0.46-0.07c0.1,0.04,0.08,0.1-0.07,0.2
		c-0.14,0.1-0.38,0.18-0.72,0.23c-0.33,0.05-0.54,0.1-0.61,0.14c0.29,0.11,0.6,0.26,0.94,0.46l1.43,0.89
		c0.43-1.01,0.74-1.8,0.92-2.38c-0.11,0.05-0.25,0.09-0.43,0.12c-0.18,0.03-0.27-0.02-0.27-0.15c0-0.12,0.11-0.22,0.32-0.3
		l0.59-0.16c0.29-0.83,0.61-1.83,0.96-3.01c0.35-1.18,0.53-1.78,0.53-1.8c1.08-3.46,2.02-5.63,2.81-6.53
		c0.79-0.9,1.52-1.48,2.19-1.75s1.17-0.41,1.51-0.41c0.95,0,1.71,0.38,2.27,1.13c0.38,0.52,0.57,1.18,0.57,1.97
		c0,1.49-0.51,2.98-1.53,4.46c-1.02,1.48-2.25,2.72-3.69,3.74c-1.44,1.02-2.93,1.8-4.48,2.34c-0.54,1.28-1.05,2.33-1.54,3.16
		c2.75,1.76,4.71,2.84,5.86,3.21c1.33,0.45,2.6,0.67,3.81,0.67c1.31,0,2.4-0.36,3.27-1.08c0.45-0.36,0.67-0.74,0.67-1.13
		c0-0.4-0.08-0.75-0.23-1.05c-0.15-0.31-0.14-0.47,0.04-0.5c0.18-0.03,0.32,0.07,0.43,0.28c0.27,0.59,0.4,1.21,0.4,1.84
		c0,0.11,0,0.22,0,0.32c-0.02,0.68-0.33,1.29-0.94,1.81c-0.72,0.61-1.83,0.92-3.32,0.92c-1.01,0-1.89-0.13-2.66-0.41
		c-0.77-0.27-1.37-0.49-1.81-0.66c-0.44-0.17-0.99-0.47-1.65-0.89c-0.66-0.42-1.12-0.72-1.39-0.9c-0.54-0.36-1.46-1.03-2.75-2
		c-0.94,1.62-1.76,2.43-2.48,2.43c-0.18,0-0.29-0.03-0.32-0.09c-0.04-0.06-0.03-0.12,0.01-0.18c0.04-0.05,0.09-0.08,0.15-0.08
		c0.59-0.05,1.26-0.89,2-2.51c-1.01-0.67-1.85-1.12-2.54-1.35c-0.61,0.25-1.04,0.38-1.27,0.38s-0.39-0.01-0.46-0.03
		c-0.31-0.11-0.46-0.3-0.46-0.57c0-0.38,0.23-0.63,0.7-0.76H19.02z M34.04,6.86c0-1.37-0.51-2.05-1.54-2.05
		c-0.92,0-1.7,0.47-2.35,1.4c-0.72,1.01-1.24,1.95-1.57,2.82c-0.32,0.87-0.56,1.52-0.7,1.93c-0.36,1.01-0.64,1.93-0.84,2.75
		c-0.59,1.66-1.03,2.8-1.3,3.43c2.07-0.94,3.86-2.21,5.36-3.81s2.44-3.41,2.82-5.43C34,7.53,34.04,7.18,34.04,6.86z"/>
	<path class="st0" d="M39.19,12.34c0.97,0,1.46,0.47,1.46,1.4c0,0.49-0.13,0.88-0.4,1.19c-0.45,0.67-1.18,1.25-2.19,1.74
		c-1.01,0.5-1.86,0.77-2.56,0.82c-0.25,0.02-0.39-0.05-0.41-0.22c-0.02-0.07,0-0.12,0.07-0.13c0.06-0.02,0.11-0.03,0.15-0.03
		c0.41-0.04,0.94-0.23,1.59-0.59c1.21-0.65,2.09-1.31,2.65-2c0.23-0.32,0.35-0.63,0.35-0.93s-0.14-0.45-0.43-0.45
		c-0.23,0-0.55,0.1-0.94,0.3c-0.85,0.4-1.74,1.08-2.67,2.07c-0.94,0.98-1.55,1.94-1.84,2.88c-0.09,0.29-0.13,0.57-0.13,0.85
		c0,0.28,0.12,0.54,0.35,0.8c0.23,0.25,0.59,0.38,1.08,0.38c0.54,0,1.16-0.14,1.86-0.43c2.03-0.83,3.6-2.08,4.7-3.75
		c0.11-0.14,0.21-0.17,0.3-0.08c0.07,0.04,0.11,0.08,0.11,0.13s-0.03,0.12-0.08,0.19c-0.54,0.9-1.22,1.7-2.05,2.4
		c-1.6,1.37-3.16,2.05-4.67,2.05c-1.3,0-2.21-0.39-2.73-1.16c-0.2-0.31-0.3-0.67-0.3-1.11c0-0.43,0.12-0.95,0.35-1.54
		c0.45-1.03,1.41-2.08,2.89-3.16C37.16,12.88,38.33,12.34,39.19,12.34z"/>
	<path class="st0" d="M47.8,12.34c0.97,0,1.46,0.47,1.46,1.4c0,0.49-0.13,0.88-0.4,1.19c-0.45,0.67-1.18,1.25-2.19,1.74
		c-1.01,0.5-1.86,0.77-2.56,0.82c-0.25,0.02-0.39-0.05-0.41-0.22c-0.02-0.07,0-0.12,0.07-0.13c0.06-0.02,0.11-0.03,0.15-0.03
		c0.41-0.04,0.94-0.23,1.59-0.59c1.21-0.65,2.09-1.31,2.65-2c0.23-0.32,0.35-0.63,0.35-0.93s-0.14-0.45-0.43-0.45
		c-0.23,0-0.55,0.1-0.94,0.3c-0.85,0.4-1.74,1.08-2.67,2.07c-0.94,0.98-1.55,1.94-1.84,2.88c-0.09,0.29-0.13,0.57-0.13,0.85
		c0,0.28,0.12,0.54,0.35,0.8c0.23,0.25,0.59,0.38,1.08,0.38c0.54,0,1.16-0.14,1.86-0.43c2.03-0.83,3.6-2.08,4.7-3.75
		c0.11-0.14,0.21-0.17,0.3-0.08c0.07,0.04,0.11,0.08,0.11,0.13s-0.03,0.12-0.08,0.19c-0.54,0.9-1.22,1.7-2.05,2.4
		c-1.6,1.37-3.16,2.05-4.67,2.05c-1.3,0-2.21-0.39-2.73-1.16c-0.2-0.31-0.3-0.67-0.3-1.11c0-0.43,0.12-0.95,0.35-1.54
		c0.45-1.03,1.41-2.08,2.89-3.16C45.77,12.88,46.94,12.34,47.8,12.34z"/>
	<path class="st0" d="M57.71,12.53c0.41,0,0.62,0.22,0.62,0.66s-0.21,1.05-0.62,1.82c-0.41,0.77-0.72,1.4-0.92,1.89
		c-0.34,0.83-0.51,1.49-0.51,1.98s0.07,0.82,0.22,0.99c0.27,0.29,0.64,0.3,1.11,0.04c0.47-0.26,1.12-0.76,1.96-1.51
		c0.84-0.75,1.51-1.48,2.01-2.2c0.07-0.09,0.16-0.11,0.26-0.07c0.1,0.04,0.15,0.09,0.15,0.13c0,0.05-0.02,0.09-0.05,0.15
		c-0.27,0.49-0.76,1.11-1.46,1.86c-0.7,0.76-1.38,1.36-2.03,1.82c-0.65,0.46-1.29,0.69-1.92,0.69c-0.61-0.02-1.04-0.16-1.3-0.42
		s-0.38-0.59-0.38-0.99c0-0.4,0.04-0.78,0.11-1.15c0.07-0.37,0.21-0.8,0.41-1.28c0.32-0.77,0.61-1.38,0.85-1.81
		c0.24-0.43,0.36-0.72,0.36-0.85c0-0.14-0.07-0.2-0.22-0.2c-0.29,0-0.84,0.35-1.65,1.05c-0.56,0.52-1.38,1.51-2.47,2.96
		c-1.09,1.45-1.71,2.22-1.85,2.31c-0.65,0.32-1.05,0.49-1.21,0.49s-0.24-0.03-0.24-0.08c0-0.05,0.02-0.13,0.05-0.23
		c0.04-0.1,0.21-0.59,0.53-1.47s0.66-1.85,1.03-2.9c0.37-1.05,0.59-1.69,0.68-1.9c0.08-0.22,0.13-0.4,0.16-0.55
		c0.03-0.15,0.06-0.28,0.09-0.39c0.04-0.11,0.1-0.23,0.2-0.36c0.1-0.14,0.23-0.21,0.39-0.22c0.16-0.01,0.37,0.01,0.62,0.05
		s0.38,0.16,0.38,0.34c0,0.13-0.1,0.4-0.3,0.82c-0.2,0.42-0.77,1.88-1.7,4.36c0.65-0.79,1.47-1.71,2.46-2.74
		c0.99-1.03,1.83-1.82,2.51-2.36C56.72,12.77,57.28,12.53,57.71,12.53z"/>
	<path class="st0" d="M62.57,20.49c-0.29,0-0.6-0.09-0.93-0.26c-0.33-0.17-0.62-0.41-0.85-0.73c-0.23-0.32-0.35-0.65-0.35-1.01
		s0.08-0.7,0.24-1.03c0.36-0.76,0.94-1.49,1.74-2.2c0.8-0.71,1.63-1.32,2.5-1.82c0.86-0.5,1.55-0.82,2.05-0.94
		c0.5-0.13,0.99-0.19,1.47-0.19c0.48,0,0.89,0.12,1.23,0.36s0.51,0.5,0.51,0.77c0,0.09-0.01,0.14-0.03,0.16
		c-0.02,0.02-0.06,0.01-0.14-0.03c-0.22-0.34-0.66-0.51-1.34-0.51c-0.67,0-1.44,0.22-2.29,0.66c-0.85,0.44-1.66,0.99-2.42,1.66
		c-0.63,0.59-1.18,1.27-1.66,2.01c-0.48,0.75-0.72,1.29-0.72,1.63c0,0.67,0.19,1,0.57,1s0.95-0.31,1.73-0.92
		c1.28-1.08,2.15-1.87,2.62-2.38c1.66-1.78,2.55-2.67,2.67-2.67c0.22,0,0.48,0.06,0.78,0.19c0.31,0.13,0.4,0.28,0.3,0.46
		c-0.92,1.3-1.46,2.6-1.62,3.91c-0.02,0.16-0.03,0.37-0.03,0.62s0.07,0.46,0.22,0.62c0.27,0.29,0.64,0.31,1.11,0.05
		c0.47-0.25,1.12-0.76,1.96-1.51c0.84-0.76,1.51-1.49,2.01-2.21c0.07-0.09,0.15-0.11,0.24-0.07c0.09,0.04,0.13,0.09,0.13,0.12
		c0,0.27-0.43,0.86-1.28,1.77c-0.86,0.91-1.51,1.53-1.96,1.85c-0.85,0.63-1.63,0.95-2.35,0.95c-0.68,0-1.14-0.34-1.38-1.03
		c-0.05-0.22-0.08-0.46-0.08-0.73c0-0.81,0.17-1.67,0.51-2.57c-0.07,0.04-0.4,0.4-1,1.08c-0.59,0.68-1.28,1.34-2.07,1.97
		C63.91,20.18,63.2,20.49,62.57,20.49z"/>
	<path class="st0" d="M78.61,5.02c0,0.36-0.38,1.02-1.13,1.97c-1.1,1.26-1.74,1.89-1.92,1.89c-0.07,0-0.11-0.05-0.11-0.16
		s0.26-0.45,0.78-1.04c0.52-0.58,0.88-1.2,1.08-1.85c0.13-0.29,0.13-0.55,0.01-0.78c-0.12-0.23-0.17-0.44-0.15-0.62
		c0.13-0.18,0.33-0.27,0.61-0.27c0.28,0,0.49,0.1,0.62,0.3C78.54,4.65,78.61,4.84,78.61,5.02z"/>
	<path class="st0" d="M80.18,20.46c-0.23,0.27-0.28,0.49-0.15,0.65c0.13,0.16,0.29,0.24,0.46,0.24c0.17,0,0.35-0.03,0.53-0.08
		c0.77-0.23,1.53-0.7,2.25-1.39c0.73-0.69,1.09-1.4,1.09-2.12c0-0.4-0.44-0.83-1.32-1.3c-0.41-0.22-0.65-0.34-0.7-0.38
		c-0.49-0.32-0.79-0.65-0.92-0.97c-0.25,0.43-0.66,1.05-1.21,1.86c-0.13,0.14-0.24,0.17-0.35,0.09c-0.11-0.08-0.12-0.19-0.03-0.34
		c0.74-1.01,1.22-1.85,1.46-2.54c0.13-0.99,0.85-1.88,2.16-2.67c1.31-0.79,2.51-1.19,3.59-1.19c0.68,0,1.17,0.12,1.44,0.36
		c0.28,0.24,0.42,0.48,0.42,0.72s-0.07,0.5-0.2,0.81c-0.13,0.31-0.41,0.59-0.82,0.86c-0.11,0.07-0.2,0.05-0.27-0.05
		c-0.04-0.11,0.04-0.26,0.23-0.45c0.19-0.19,0.31-0.45,0.36-0.77c0.05-0.32-0.09-0.52-0.43-0.59c-0.05,0-0.11,0-0.16,0
		c-0.7,0-1.58,0.26-2.63,0.78c-1.05,0.52-1.88,1.2-2.47,2.03c-0.23,0.31-0.35,0.62-0.35,0.93c0,0.32,0.22,0.6,0.65,0.85
		c0.18,0.11,0.49,0.28,0.92,0.51c0.43,0.23,0.74,0.4,0.92,0.51c0.18,0.11,0.4,0.28,0.65,0.51c0.25,0.23,0.39,0.45,0.4,0.65
		c0.09,0.54-0.16,1.13-0.76,1.78c-0.85,0.94-2.11,1.59-3.78,1.97c-0.38,0.09-0.76,0.13-1.15,0.13s-0.65-0.14-0.8-0.43
		c-0.05-0.07-0.08-0.18-0.08-0.34c0-0.15,0.14-0.4,0.43-0.74c0.27-0.27,0.7-0.53,1.3-0.78c0.05-0.02,0.1-0.01,0.14,0.03
		c0.04,0.04,0.04,0.08,0.03,0.13c-0.02,0.05-0.11,0.12-0.28,0.19S80.37,20.19,80.18,20.46z"/>
	<path class="st0" d="M97.43,19.74c0,0.23,0.12,0.35,0.35,0.35s0.55-0.25,0.95-0.74c0.4-0.5,0.67-0.73,0.81-0.72
		c0.11,0.11-0.01,0.34-0.35,0.7c-0.04,0.04-0.1,0.13-0.19,0.28c-0.09,0.15-0.17,0.28-0.23,0.37c-0.06,0.09-0.15,0.21-0.26,0.35
		c-0.11,0.14-0.21,0.26-0.3,0.35c-0.09,0.09-0.19,0.18-0.3,0.27c-0.22,0.18-0.4,0.27-0.57,0.27s-0.38-0.03-0.66-0.09
		c-0.28-0.06-0.42-0.13-0.43-0.2s-0.01-0.13-0.01-0.19c0-0.94,0.76-2.85,2.29-5.75c-0.23,0-0.42-0.01-0.55-0.03
		c-0.14-0.02-0.22-0.09-0.24-0.22c-0.03-0.13,0.01-0.2,0.11-0.22c0.1-0.02,0.2-0.02,0.31,0c0.11,0.02,0.3,0.03,0.57,0.03
		c0.92-1.66,1.47-2.67,1.65-3.04c0.18-0.37,0.27-0.63,0.27-0.8s-0.01-0.29-0.03-0.38c0.07-0.5,0.51-1.17,1.31-1.98
		c0.8-0.82,1.53-1.23,2.17-1.23c0.22,0,0.51,0.08,0.88,0.24c0.37,0.16,0.58,0.35,0.63,0.55c0.05,0.21,0.07,0.32,0.04,0.35
		c-0.03,0.03-0.09,0.02-0.18-0.01c-0.09-0.04-0.14-0.05-0.16-0.05c-1.3,0-3.14,2.12-5.54,6.34c1.96-0.09,3.97-0.48,6.03-1.17
		c2.06-0.69,3.64-1.61,4.74-2.74c0.63-0.61,0.94-1.26,0.94-1.94c0-2.02-2.06-3.02-6.18-3.02c-2.36,0-4.61,0.36-6.75,1.08
		c-1.12,0.4-2.07,0.93-2.85,1.59c-0.78,0.67-1.25,1.42-1.39,2.27c-0.02,0.09-0.03,0.21-0.03,0.35s0.06,0.32,0.17,0.53
		c0.12,0.21,0.26,0.36,0.42,0.47s0.39,0.23,0.69,0.38s0.5,0.25,0.59,0.32c0.1,0.07,0.12,0.15,0.07,0.23
		c-0.05,0.08-0.17,0.1-0.35,0.07c-0.56-0.09-1.08-0.37-1.57-0.84c-0.48-0.47-0.73-0.97-0.73-1.51c0-0.16,0.02-0.32,0.05-0.49
		c-0.04-0.23-0.05-0.38-0.05-0.43c0.25-1.35,1.57-2.64,3.97-3.86c1.89-0.88,4.12-1.32,6.7-1.32c1.58,0,3.15,0.22,4.7,0.65
		c1.04,0.36,1.84,0.87,2.38,1.54c0.54,0.67,0.81,1.34,0.81,2.02c0,1.04-0.41,1.97-1.24,2.77c-0.83,0.8-1.75,1.42-2.78,1.85
		c-2.43,1.04-5.29,1.6-8.59,1.67c-0.7,1.3-1.23,2.35-1.58,3.16C97.6,18.98,97.43,19.5,97.43,19.74z"/>
	<path class="st0" d="M113.95,17.22c0.32-0.67,0.49-1.18,0.49-1.54s-0.04-0.64-0.12-0.85s-0.04-0.38,0.11-0.53
		c0.15-0.14,0.35-0.2,0.58-0.16c0.36,0.09,0.54,0.5,0.54,1.21c0,0.72-0.42,1.67-1.27,2.83c0.02,0.49,0.27,0.73,0.76,0.73
		s1.22-0.52,2.21-1.57c0.47-0.54,0.76-0.89,0.88-1.05c0.12-0.16,0.22-0.22,0.31-0.18c0.09,0.04,0.13,0.09,0.13,0.12
		c0,0.18-0.32,0.65-0.97,1.4c-1.03,1.26-1.94,1.89-2.73,1.89c-0.52,0-0.89-0.22-1.11-0.67c-0.36,0.38-0.71,0.73-1.05,1.05
		c-0.7,0.59-1.48,0.89-2.35,0.89c-0.49,0-0.89-0.12-1.21-0.35c-0.63-0.38-0.95-1.05-0.95-2.02c0-1.06,0.36-2.14,1.08-3.24
		c0.41-0.65,0.9-1.21,1.46-1.7c0.88-0.77,1.72-1.16,2.51-1.16c0.2,0,0.39,0.03,0.57,0.08c0.54,0.18,0.81,0.52,0.81,1.03
		c0,0.41-0.11,0.62-0.32,0.62c-0.09-0.04-0.13-0.17-0.13-0.41c0-0.32-0.18-0.49-0.54-0.49c-0.63,0-1.44,0.58-2.43,1.73
		c-0.99,1.15-1.58,2.31-1.78,3.48c-0.04,0.2-0.05,0.42-0.05,0.66s0.08,0.52,0.24,0.84s0.46,0.47,0.9,0.47c0.44,0,0.92-0.2,1.44-0.59
		c0.52-0.4,0.99-0.9,1.4-1.51l-0.08-0.16c-0.07-0.29-0.04-0.52,0.11-0.7C113.53,17.21,113.72,17.15,113.95,17.22z"/>
	<path class="st0" d="M121.4,20.87c-0.92,0-1.38-0.55-1.38-1.66c0-1.11,0.79-2.47,2.38-4.09c0.13-0.13,0.22-0.22,0.27-0.3l0.19-0.27
		c0.25-0.34,0.37-0.56,0.35-0.65l-0.08-0.24c-0.07-0.22-0.37-0.37-0.89-0.47c-0.52-0.1-0.95-0.15-1.27-0.15
		c-1.62,2.29-2.56,3.59-2.81,3.91c-0.25,0.32-0.42,0.46-0.51,0.41c-0.09-0.05-0.13-0.12-0.13-0.19c0-0.07,0.05-0.18,0.16-0.32
		c0.97-1.19,1.81-2.46,2.51-3.81c-0.22-0.04-0.38-0.11-0.49-0.23c-0.11-0.12-0.12-0.31-0.03-0.59c0.09-0.28,0.36-0.65,0.82-1.12
		c0.46-0.47,0.86-0.78,1.2-0.94c0.34-0.16,0.56-0.26,0.65-0.3s0.19-0.05,0.3-0.05c0.22,0,0.14,0.32-0.22,0.97l-1.05,1.67
		c0.81,0.05,1.5,0.08,2.08,0.08l0.94-0.03c0.31,0,0.53,0.04,0.68,0.12c0.14,0.08,0.18,0.22,0.11,0.42c-0.13,0.34-0.44,0.8-0.95,1.38
		c-1.08,1.26-1.89,2.6-2.43,4.02c-0.13,0.34-0.19,0.64-0.19,0.89c0,0.52,0.19,0.78,0.57,0.78c0.13,0,0.36-0.1,0.72-0.3
		c0.35-0.2,0.94-0.67,1.77-1.42c0.83-0.75,1.49-1.48,2-2.2c0.07-0.09,0.16-0.11,0.26-0.07c0.1,0.04,0.15,0.09,0.15,0.13
		c0,0.05-0.02,0.09-0.05,0.15c-0.27,0.49-0.76,1.11-1.46,1.86s-1.39,1.37-2.05,1.84C122.86,20.62,122.16,20.87,121.4,20.87z"/>
	<path class="st0" d="M130.67,12.63c1.39-0.13,2.23-0.19,2.52-0.19s0.45,0.04,0.45,0.14c0,0.11-0.21,0.22-0.63,0.34
		s-1.45,0.27-3.09,0.45c-0.09,0.16-0.2,0.35-0.32,0.57c-0.27,0.43-0.42,0.69-0.43,0.78c-1.03,2.05-1.57,3.36-1.62,3.91
		c-0.02,0.16-0.03,0.37-0.03,0.62s0.07,0.46,0.22,0.62c0.25,0.29,0.61,0.31,1.08,0.05c0.47-0.25,1.12-0.76,1.96-1.51
		s1.52-1.49,2.04-2.21c0.07-0.09,0.16-0.11,0.27-0.05c0.27,0.13-0.2,0.84-1.4,2.13c-1.15,1.24-2.12,2.01-2.89,2.29
		c-0.45,0.16-0.83,0.24-1.13,0.24c-0.72,0-1.2-0.34-1.43-1.03c-0.04-0.13-0.05-0.28-0.05-0.46c0-0.63,0.29-1.58,0.86-2.86
		c-0.09,0.2-0.44,0.65-1.05,1.35c-0.16,0.18-0.29,0.18-0.38,0c-0.02-0.04-0.03-0.09-0.03-0.15c0-0.06,0.04-0.14,0.11-0.23
		c0.88-1.1,1.57-2.02,2.08-2.78c0-0.02,0.2-0.4,0.59-1.13c-0.18,0.04-0.36,0.05-0.55,0.05c-0.19,0-0.33-0.06-0.42-0.18
		c-0.09-0.12-0.1-0.26-0.03-0.42c0.13-0.29,0.6-0.45,1.43-0.49c0.02-0.04,0.05-0.05,0.11-0.05l1.35-2.51
		c0.07-0.14,0.15-0.29,0.24-0.45c0.09-0.15,0.16-0.27,0.2-0.35s0.09-0.17,0.15-0.26c0.05-0.09,0.1-0.15,0.14-0.19
		c0.04-0.04,0.07-0.07,0.11-0.11c0.07-0.11,0.28-0.16,0.63-0.16s0.59,0.1,0.72,0.3c0.05,0.07,0.08,0.19,0.08,0.36
		s-0.06,0.36-0.19,0.57c-0.13,0.21-0.26,0.36-0.41,0.45c-0.14,0.09-0.24,0.19-0.3,0.3l-1.3,2.27L130.67,12.63z"/>
	<path class="st0" d="M131.19,28.96c-0.04,0.08-0.09,0.14-0.13,0.17s-0.23,0.14-0.55,0.32s-0.62,0.27-0.88,0.27
		s-0.39-0.06-0.39-0.19c0-0.05,0.02-0.13,0.05-0.22c0.32-0.61,1.99-4.76,5-12.45c-0.56,0.07-0.97,0.11-1.24,0.11
		c-0.27,0-0.48-0.06-0.63-0.18c-0.15-0.12-0.23-0.27-0.23-0.46s0.2-0.36,0.61-0.51c0.4-0.15,0.71-0.23,0.93-0.23
		c0.22,0,0.4,0.07,0.54,0.22c0.14,0.14,0.24,0.22,0.3,0.22h0.08l0.78-2c0.32-0.9,0.82-2.07,1.49-3.52c0.67-1.45,1.27-2.61,1.81-3.47
		c1.21-1.82,2.41-2.73,3.62-2.73l0.65,0.08l0.54,0.19c0.52,0.31,0.78,0.72,0.78,1.26c0,0.53-0.14,1.1-0.43,1.71
		c-0.49,1.04-1.48,2.4-2.97,4.08c-1.49,1.67-2.93,3.07-4.32,4.19c1.48-0.13,2.43-0.19,2.85-0.19s0.64,0.05,0.66,0.16
		c0,0.07-0.17,0.16-0.51,0.26c-0.34,0.1-1.73,0.33-4.16,0.69c-2.14,5.44-3.23,8.55-3.27,9.34c-0.02,0.4-0.06,0.68-0.12,0.85
		c-0.06,0.17-0.14,0.37-0.23,0.59c-0.09,0.23-0.16,0.4-0.2,0.51c-0.04,0.12-0.09,0.25-0.15,0.39c-0.05,0.14-0.1,0.25-0.13,0.31
		C131.28,28.8,131.24,28.88,131.19,28.96z M143.11,7.18c0.31-0.52,0.46-1.02,0.46-1.48c0-0.47-0.17-0.7-0.51-0.7
		c-0.68,0-1.66,0.88-2.92,2.65c-0.74,1.04-1.4,2.08-1.97,3.1c-1.15,2.16-1.89,3.74-2.21,4.73l-0.22,0.43c1.26-0.94,2.6-2.27,4.02-4
		C141.19,10.18,142.3,8.6,143.11,7.18z"/>
	<path class="st0" d="M145.76,17.22c0.32-0.67,0.49-1.18,0.49-1.54s-0.04-0.64-0.12-0.85s-0.04-0.38,0.11-0.53
		c0.15-0.14,0.35-0.2,0.58-0.16c0.36,0.09,0.54,0.5,0.54,1.21c0,0.72-0.42,1.67-1.27,2.83c0.02,0.49,0.27,0.73,0.76,0.73
		s1.22-0.52,2.21-1.57c0.47-0.54,0.76-0.89,0.88-1.05c0.12-0.16,0.22-0.22,0.31-0.18c0.09,0.04,0.13,0.09,0.13,0.12
		c0,0.18-0.32,0.65-0.97,1.4c-1.03,1.26-1.94,1.89-2.73,1.89c-0.52,0-0.89-0.22-1.11-0.67c-0.36,0.38-0.71,0.73-1.05,1.05
		c-0.7,0.59-1.48,0.89-2.35,0.89c-0.49,0-0.89-0.12-1.21-0.35c-0.63-0.38-0.95-1.05-0.95-2.02c0-1.06,0.36-2.14,1.08-3.24
		c0.41-0.65,0.9-1.21,1.46-1.7c0.88-0.77,1.72-1.16,2.51-1.16c0.2,0,0.39,0.03,0.57,0.08c0.54,0.18,0.81,0.52,0.81,1.03
		c0,0.41-0.11,0.62-0.32,0.62c-0.09-0.04-0.13-0.17-0.13-0.41c0-0.32-0.18-0.49-0.54-0.49c-0.63,0-1.44,0.58-2.43,1.73
		c-0.99,1.15-1.58,2.31-1.78,3.48c-0.04,0.2-0.05,0.42-0.05,0.66s0.08,0.52,0.24,0.84s0.46,0.47,0.9,0.47c0.44,0,0.92-0.2,1.44-0.59
		c0.52-0.4,0.99-0.9,1.4-1.51l-0.08-0.16c-0.07-0.29-0.04-0.52,0.11-0.7C145.33,17.21,145.52,17.15,145.76,17.22z"/>
	<path class="st0" d="M150.97,16.74c-0.22,0.61-0.33,1.02-0.35,1.23s-0.03,0.49-0.03,0.84c0,0.35,0.09,0.67,0.27,0.96
		c0.31,0.49,0.82,0.52,1.54,0.11c0.54-0.29,1.22-0.81,2.05-1.58c0.83-0.77,1.47-1.46,1.92-2.09c0.04-0.05,0.09-0.08,0.16-0.08
		c0.16,0,0.21,0.12,0.13,0.35c-0.27,0.49-0.77,1.11-1.5,1.86c-0.73,0.76-1.39,1.35-1.98,1.8c-0.59,0.44-1.19,0.66-1.78,0.66
		c-1.37,0-2.05-0.67-2.05-2c0-0.05,0-0.11,0-0.16c0.07-1.26,0.71-3.16,1.92-5.71c1.21-2.55,2.29-4.47,3.27-5.76l0.84-1.05
		c0.2-0.23,0.49-0.52,0.86-0.86c0.72-0.68,1.46-1.03,2.23-1.03c0.76,0,1.28,0.23,1.55,0.7c0.09,0.16,0.13,0.4,0.13,0.7
		c0,0.31-0.13,0.74-0.41,1.3C157.89,10.13,154.96,13.41,150.97,16.74z M159.01,6.42c0.22-0.4,0.32-0.7,0.32-0.92
		c0-0.38-0.15-0.57-0.46-0.57c-0.25,0-0.57,0.14-0.95,0.43c-1.44,1.12-2.83,2.88-4.19,5.29c-1.08,1.94-1.87,3.61-2.38,4.99
		c1.24-0.85,2.63-2.22,4.17-4.13C157.08,9.62,158.24,7.92,159.01,6.42z"/>
	<path class="st0" d="M158.58,12.72c0.45,0,0.72,0.14,0.81,0.43c0.04,0.16,0.01,0.32-0.07,0.47c-0.08,0.15-0.14,0.27-0.17,0.36
		c-0.04,0.09-0.06,0.16-0.08,0.22c-0.09,0.18-0.18,0.35-0.27,0.51c-1.03,2.05-1.57,3.36-1.62,3.91c-0.02,0.16-0.03,0.37-0.03,0.62
		s0.07,0.46,0.22,0.62c0.25,0.29,0.61,0.31,1.08,0.05c0.47-0.25,1.12-0.76,1.96-1.51s1.52-1.49,2.04-2.21
		c0.07-0.09,0.15-0.11,0.24-0.07c0.09,0.04,0.13,0.09,0.13,0.13c0,0.05-0.02,0.09-0.05,0.15c-0.27,0.49-0.76,1.11-1.46,1.86
		c-1.15,1.24-2.12,2.01-2.89,2.29c-0.45,0.16-0.83,0.24-1.13,0.24c-0.72,0-1.2-0.34-1.43-1.03c-0.04-0.13-0.05-0.28-0.05-0.46
		c0-0.63,0.29-1.58,0.86-2.86c-0.09,0.2-0.44,0.65-1.05,1.35c-0.16,0.18-0.29,0.18-0.38,0c-0.02-0.04-0.03-0.09-0.03-0.15
		c0-0.06,0.04-0.14,0.11-0.23c0.88-1.1,1.57-2.02,2.08-2.78c-0.04-0.09-0.02-0.21,0.05-0.35c0.36-1.01,0.67-1.54,0.95-1.59
		C158.45,12.72,158.51,12.72,158.58,12.72z M160.71,9.12l-0.22,0.86c0,0.16-0.12,0.42-0.35,0.78c-0.23,0.36-0.42,0.54-0.54,0.54
		c-0.77,0-1.16-0.19-1.16-0.57c0-0.07,0.39-0.4,1.16-1l0.46-0.35c0.29-0.25,0.47-0.38,0.54-0.38
		C160.68,9.02,160.71,9.05,160.71,9.12z"/>
	<path class="st0" d="M167.68,17.22c0.32-0.67,0.49-1.18,0.49-1.54s-0.04-0.64-0.12-0.85s-0.04-0.38,0.11-0.53
		c0.15-0.14,0.35-0.2,0.58-0.16c0.36,0.09,0.54,0.5,0.54,1.21c0,0.72-0.42,1.67-1.27,2.83c0.02,0.49,0.27,0.73,0.76,0.73
		s1.22-0.52,2.21-1.57c0.47-0.54,0.76-0.89,0.88-1.05c0.12-0.16,0.22-0.22,0.31-0.18c0.09,0.04,0.13,0.09,0.13,0.12
		c0,0.18-0.32,0.65-0.97,1.4c-1.03,1.26-1.94,1.89-2.73,1.89c-0.52,0-0.89-0.22-1.11-0.67c-0.36,0.38-0.71,0.73-1.05,1.05
		c-0.7,0.59-1.48,0.89-2.35,0.89c-0.49,0-0.89-0.12-1.21-0.35c-0.63-0.38-0.95-1.05-0.95-2.02c0-1.06,0.36-2.14,1.08-3.24
		c0.41-0.65,0.9-1.21,1.46-1.7c0.88-0.77,1.72-1.16,2.51-1.16c0.2,0,0.39,0.03,0.57,0.08c0.54,0.18,0.81,0.52,0.81,1.03
		c0,0.41-0.11,0.62-0.32,0.62c-0.09-0.04-0.13-0.17-0.13-0.41c0-0.32-0.18-0.49-0.54-0.49c-0.63,0-1.44,0.58-2.43,1.73
		c-0.99,1.15-1.58,2.31-1.78,3.48c-0.04,0.2-0.05,0.42-0.05,0.66s0.08,0.52,0.24,0.84s0.46,0.47,0.9,0.47c0.44,0,0.92-0.2,1.44-0.59
		c0.52-0.4,0.99-0.9,1.4-1.51l-0.08-0.16c-0.07-0.29-0.04-0.52,0.11-0.7C167.26,17.21,167.45,17.15,167.68,17.22z"/>
</g>
</svg>
